<svg width="86" height="83" viewBox="0 0 86 83" fill="none" xmlns="http://www.w3.org/2000/svg">
<path d="M0 25.6144V64.2224C0 69.1766 0 71.6561 1.34425 73.5229C2.6885 75.3896 5.03975 76.1734 9.74225 77.7409L15.276 79.5839C21.7692 81.7499 25.0135 82.8329 28.2862 82.3911L28.5 82.3626V15.8626C27.9649 15.9423 27.4257 15.9915 26.885 16.0099C24.32 16.1001 21.7835 15.2499 16.7153 13.5636C10.0747 11.3501 6.7545 10.2434 4.2275 11.3691C3.332 11.7675 2.52833 12.3464 1.86675 13.0696C-4.76837e-07 15.1169 0 18.6129 0 25.6144ZM85.5 56.8694V18.2661C85.5 13.3119 85.5 10.8324 84.1557 8.96562C82.8115 7.09887 80.4602 6.31512 75.7577 4.74762L70.224 2.90462C63.7308 0.738624 60.4865 -0.344375 57.2137 0.0973747L57 0.121124V66.6211C57.5368 66.5404 58.0783 66.4929 58.615 66.4739C61.18 66.3836 63.7165 67.2339 68.7848 68.9201C75.4253 71.1336 78.7455 72.2404 81.2725 71.1146C82.168 70.7162 82.9717 70.1373 83.6333 69.4141C85.5 67.3669 85.5 63.8709 85.5 56.8694Z" fill="#0094FF"/>
<path d="M29.6732 15.6394C29.2845 15.7257 28.8933 15.8001 28.5 15.8626V82.3626C31.6825 81.8686 34.5278 79.9734 40.0995 76.2589L46.664 71.8794C51.11 68.9154 53.333 67.4334 55.8315 66.8444C56.2115 66.7494 56.6057 66.6781 57 66.6211V0.121124C53.8175 0.610374 50.9722 2.51037 45.4005 6.22012L38.836 10.5996C34.39 13.5636 32.167 15.0456 29.6685 15.6346L29.6732 15.6394Z" fill="#1469A7"/>
</svg>
