<svg width="378" height="83" viewBox="0 0 378 83" fill="none" xmlns="http://www.w3.org/2000/svg">
<path d="M0 25.6144V64.2224C0 69.1766 0 71.6561 1.34425 73.5229C2.6885 75.3896 5.03975 76.1734 9.74225 77.7409L15.276 79.5839C21.7692 81.7499 25.0135 82.8329 28.2862 82.3911L28.5 82.3626V15.8626C27.9649 15.9423 27.4257 15.9915 26.885 16.0099C24.32 16.1001 21.7835 15.2499 16.7153 13.5636C10.0747 11.3501 6.7545 10.2434 4.2275 11.3691C3.332 11.7675 2.52833 12.3464 1.86675 13.0696C-4.76837e-07 15.1169 0 18.6129 0 25.6144ZM85.5 56.8694V18.2661C85.5 13.3119 85.5 10.8324 84.1557 8.96562C82.8115 7.09887 80.4602 6.31512 75.7577 4.74762L70.224 2.90462C63.7307 0.738624 60.4865 -0.344375 57.2137 0.0973747L57 0.121124V66.6211C57.5368 66.5404 58.0783 66.4929 58.615 66.4739C61.18 66.3836 63.7165 67.2339 68.7848 68.9201C75.4253 71.1336 78.7455 72.2404 81.2725 71.1146C82.168 70.7162 82.9717 70.1373 83.6333 69.4141C85.5 67.3669 85.5 63.8709 85.5 56.8694Z" fill="#0094FF"/>
<path d="M29.6732 15.6394C29.2845 15.7257 28.8933 15.8001 28.5 15.8626V82.3626C31.6825 81.8686 34.5278 79.9734 40.0995 76.2589L46.664 71.8794C51.11 68.9154 53.333 67.4334 55.8315 66.8444C56.2115 66.7494 56.6058 66.6781 57 66.6211V0.121124C53.8175 0.610374 50.9722 2.51037 45.4005 6.22012L38.836 10.5996C34.39 13.5636 32.167 15.0456 29.6685 15.6346L29.6732 15.6394Z" fill="#0080DC"/>
<path d="M111.523 65V18.4545H122.636V36.0682H122.864C123.318 35.0076 123.962 33.9848 124.795 33C125.644 32.0152 126.72 31.2121 128.023 30.5909C129.341 29.9545 130.917 29.6364 132.75 29.6364C135.174 29.6364 137.439 30.2727 139.545 31.5455C141.667 32.8182 143.379 34.7803 144.682 37.4318C145.985 40.0833 146.636 43.4621 146.636 47.5682C146.636 51.5227 146.008 54.8333 144.75 57.5C143.508 60.1667 141.826 62.1667 139.705 63.5C137.598 64.8333 135.258 65.5 132.682 65.5C130.924 65.5 129.402 65.2121 128.114 64.6364C126.826 64.0606 125.742 63.303 124.864 62.3636C124 61.4242 123.333 60.4167 122.864 59.3409H122.523V65H111.523ZM122.409 47.5455C122.409 49.4242 122.659 51.0606 123.159 52.4545C123.674 53.8485 124.409 54.9318 125.364 55.7045C126.333 56.4621 127.492 56.8409 128.841 56.8409C130.205 56.8409 131.364 56.4621 132.318 55.7045C133.273 54.9318 133.992 53.8485 134.477 52.4545C134.977 51.0606 135.227 49.4242 135.227 47.5455C135.227 45.6667 134.977 44.0379 134.477 42.6591C133.992 41.2803 133.273 40.2121 132.318 39.4545C131.379 38.697 130.22 38.3182 128.841 38.3182C127.477 38.3182 126.318 38.6894 125.364 39.4318C124.409 40.1742 123.674 41.2348 123.159 42.6136C122.659 43.9924 122.409 45.6364 122.409 47.5455ZM161.014 18.4545V65H149.9V18.4545H161.014ZM188.05 49.9318V30.0909H199.141V65H188.55V58.5H188.187C187.414 60.6364 186.096 62.3333 184.232 63.5909C182.384 64.8333 180.149 65.4545 177.528 65.4545C175.149 65.4545 173.058 64.9091 171.255 63.8182C169.452 62.7273 168.05 61.2045 167.05 59.25C166.05 57.2803 165.543 54.9773 165.528 52.3409V30.0909H176.641V50.1591C176.657 52.053 177.157 53.5455 178.141 54.6364C179.126 55.7273 180.467 56.2727 182.164 56.2727C183.27 56.2727 184.263 56.0303 185.141 55.5455C186.035 55.0455 186.74 54.3258 187.255 53.3864C187.785 52.4318 188.05 51.2803 188.05 49.9318ZM219.973 65.6591C216.322 65.6591 213.17 64.9394 210.519 63.5C207.883 62.0455 205.852 59.9773 204.428 57.2955C203.019 54.5985 202.314 51.3939 202.314 47.6818C202.314 44.0758 203.026 40.9242 204.451 38.2273C205.875 35.5152 207.882 33.4091 210.473 31.9091C213.064 30.3939 216.117 29.6364 219.632 29.6364C222.117 29.6364 224.39 30.0227 226.451 30.7955C228.511 31.5682 230.292 32.7121 231.792 34.2273C233.292 35.7424 234.458 37.6136 235.292 39.8409C236.125 42.053 236.542 44.5909 236.542 47.4545V50.2273H206.201V43.7727H226.201C226.186 42.5909 225.905 41.5379 225.36 40.6136C224.814 39.6894 224.064 38.9697 223.11 38.4545C222.17 37.9242 221.087 37.6591 219.86 37.6591C218.617 37.6591 217.504 37.9394 216.519 38.5C215.534 39.0455 214.754 39.7955 214.178 40.75C213.602 41.6894 213.299 42.7576 213.269 43.9545V50.5227C213.269 51.947 213.549 53.197 214.11 54.2727C214.67 55.3333 215.466 56.1591 216.496 56.75C217.526 57.3409 218.754 57.6364 220.178 57.6364C221.163 57.6364 222.057 57.5 222.86 57.2273C223.663 56.9545 224.352 56.553 224.928 56.0227C225.504 55.4924 225.936 54.8409 226.223 54.0682L236.428 54.3636C236.004 56.6515 235.072 58.6439 233.632 60.3409C232.208 62.0227 230.337 63.3333 228.019 64.2727C225.701 65.197 223.019 65.6591 219.973 65.6591ZM239.658 78.0909V30.0909H250.658V36.0682H250.999C251.453 35.0076 252.097 33.9848 252.93 33C253.779 32.0152 254.855 31.2121 256.158 30.5909C257.476 29.9545 259.052 29.6364 260.885 29.6364C263.309 29.6364 265.574 30.2727 267.68 31.5455C269.802 32.8182 271.514 34.7803 272.817 37.4318C274.12 40.0833 274.771 43.4621 274.771 47.5682C274.771 51.5227 274.143 54.8333 272.885 57.5C271.643 60.1667 269.961 62.1667 267.84 63.5C265.733 64.8333 263.393 65.5 260.817 65.5C259.059 65.5 257.537 65.2121 256.249 64.6364C254.961 64.0606 253.877 63.303 252.999 62.3636C252.135 61.4242 251.468 60.4167 250.999 59.3409H250.771V78.0909H239.658ZM250.544 47.5455C250.544 49.4242 250.794 51.0606 251.294 52.4545C251.809 53.8485 252.544 54.9318 253.499 55.7045C254.468 56.4621 255.627 56.8409 256.976 56.8409C258.34 56.8409 259.499 56.4621 260.453 55.7045C261.408 54.9318 262.127 53.8485 262.612 52.4545C263.112 51.0606 263.362 49.4242 263.362 47.5455C263.362 45.6667 263.112 44.0379 262.612 42.6591C262.127 41.2803 261.408 40.2121 260.453 39.4545C259.514 38.697 258.355 38.3182 256.976 38.3182C255.612 38.3182 254.453 38.6894 253.499 39.4318C252.544 40.1742 251.809 41.2348 251.294 42.6136C250.794 43.9924 250.544 45.6364 250.544 47.5455ZM278.035 65V30.0909H288.831V36.4545H289.194C289.831 34.1515 290.869 32.4394 292.308 31.3182C293.747 30.1818 295.422 29.6136 297.331 29.6136C297.846 29.6136 298.376 29.6515 298.922 29.7273C299.467 29.7879 299.975 29.8864 300.444 30.0227V39.6818C299.914 39.5 299.217 39.3561 298.353 39.25C297.505 39.1439 296.747 39.0909 296.081 39.0909C294.762 39.0909 293.573 39.3864 292.512 39.9773C291.467 40.553 290.641 41.3636 290.035 42.4091C289.444 43.4394 289.149 44.6515 289.149 46.0455V65H278.035ZM302.413 65V30.0909H313.526V65H302.413ZM307.981 26.0227C306.42 26.0227 305.079 25.5076 303.958 24.4773C302.837 23.4318 302.276 22.1742 302.276 20.7045C302.276 19.25 302.837 18.0076 303.958 16.9773C305.079 15.9318 306.42 15.4091 307.981 15.4091C309.557 15.4091 310.898 15.9318 312.004 16.9773C313.125 18.0076 313.685 19.25 313.685 20.7045C313.685 22.1742 313.125 23.4318 312.004 24.4773C310.898 25.5076 309.557 26.0227 307.981 26.0227ZM329.154 45.0909V65H318.04V30.0909H328.608V36.5H328.995C329.768 34.3636 331.086 32.6894 332.949 31.4773C334.813 30.25 337.033 29.6364 339.608 29.6364C342.063 29.6364 344.192 30.1894 345.995 31.2955C347.813 32.3864 349.222 33.9167 350.222 35.8864C351.237 37.8409 351.737 40.1288 351.722 42.75V65H340.608V44.9318C340.624 42.9924 340.131 41.4773 339.131 40.3864C338.146 39.2955 336.775 38.75 335.018 38.75C333.851 38.75 332.821 39.0076 331.927 39.5227C331.048 40.0227 330.366 40.7424 329.881 41.6818C329.411 42.6212 329.169 43.7576 329.154 45.0909ZM375.747 30.0909V38.2727H353.725V30.0909H375.747ZM358.338 21.7273H369.452V54.0227C369.452 54.7045 369.558 55.2576 369.77 55.6818C369.997 56.0909 370.323 56.3864 370.747 56.5682C371.172 56.7348 371.679 56.8182 372.27 56.8182C372.694 56.8182 373.141 56.7803 373.611 56.7045C374.096 56.6136 374.459 56.5379 374.702 56.4773L376.384 64.5C375.853 64.6515 375.103 64.8409 374.134 65.0682C373.179 65.2955 372.035 65.4394 370.702 65.5C368.096 65.6212 365.861 65.3182 363.997 64.5909C362.149 63.8485 360.732 62.697 359.747 61.1364C358.778 59.5758 358.308 57.6136 358.338 55.25V21.7273Z" fill="black"/>
</svg>
